<svg width="510.440186" height="507.799683" viewBox="0 0 510.44 507.8" fill="none" xmlns="http://www.w3.org/2000/svg" xmlns:xlink="http://www.w3.org/1999/xlink">
	<defs/>
	<path id="path170" d="M151.09 477.88L99.53 445.68L359.35 29.92L410.88 62.12L151.09 477.88Z" fill="#040000" fill-opacity="1.000000" fill-rule="nonzero"/>
	<path id="path170" d="M99.53 445.68L359.35 29.92L410.88 62.12L151.09 477.88L99.53 445.68Z" fill="#000000" fill-opacity="0" fill-rule="nonzero"/>
	<path id="path170" d="M359.35 29.92L410.88 62.12L151.09 477.88L99.53 445.68L359.35 29.92Z" fill="#000000" fill-opacity="0" fill-rule="nonzero"/>
	<path id="path170" d="M410.88 62.12L151.09 477.88L99.53 445.68L359.35 29.92L410.88 62.12Z" stroke="#000000" stroke-opacity="0" stroke-width="1.333333"/>
	<path id="path174" d="M333.88 499.49L510.44 216.94C487.4 217.92 466.33 230.2 454.11 249.75L338.67 434.48C326.46 454.04 324.66 478.36 333.88 499.49Z" fill="#040000" fill-opacity="1.000000" fill-rule="nonzero"/>
	<path id="path174" d="M510.44 216.94C487.4 217.92 466.33 230.2 454.11 249.75L338.67 434.48C326.46 454.04 324.66 478.36 333.88 499.49L510.44 216.94Z" fill="#000000" fill-opacity="0" fill-rule="nonzero"/>
	<path id="path174" d="M454.11 249.75L338.67 434.48C326.46 454.04 324.66 478.36 333.88 499.49L510.44 216.94C487.4 217.92 466.33 230.2 454.11 249.75Z" fill="#000000" fill-opacity="0" fill-rule="nonzero"/>
	<path id="path174" d="M338.67 434.48C326.46 454.04 324.66 478.36 333.88 499.49L510.44 216.94C487.4 217.92 466.33 230.2 454.11 249.75L338.67 434.48Z" stroke="#000000" stroke-opacity="0" stroke-width="1.333333"/>
	<path id="path178" d="M407.82 460.4L507.71 300.54C488.86 304.13 470.27 317.97 458.07 337.52L419.28 399.57C407.08 419.12 402.77 441.88 407.82 460.4Z" fill="#040000" fill-opacity="1.000000" fill-rule="nonzero"/>
	<path id="path178" d="M507.71 300.54C488.86 304.13 470.27 317.97 458.07 337.52L419.28 399.57C407.08 419.12 402.77 441.88 407.82 460.4L507.71 300.54Z" fill="#000000" fill-opacity="0" fill-rule="nonzero"/>
	<path id="path178" d="M458.07 337.52L419.28 399.57C407.08 419.12 402.77 441.88 407.82 460.4L507.71 300.54C488.86 304.13 470.27 317.97 458.07 337.52Z" fill="#000000" fill-opacity="0" fill-rule="nonzero"/>
	<path id="path178" d="M419.28 399.57C407.08 419.12 402.77 441.88 407.82 460.4L507.71 300.54C488.86 304.13 470.27 317.97 458.07 337.52L419.28 399.57Z" stroke="#000000" stroke-opacity="0" stroke-width="1.333333"/>
	<path id="path182" d="M358.1 346.07L383.16 305.96C391.35 292.85 403.52 283.04 417.59 277.69L491.57 159.3C468.52 160.28 447.46 172.55 435.24 192.1L278.59 442.8C266.37 462.35 264.57 486.67 273.78 507.8L347.77 389.41C346.43 374.42 349.91 359.18 358.1 346.07Z" fill="#040000" fill-opacity="1.000000" fill-rule="nonzero"/>
	<path id="path182" d="M383.16 305.96C391.35 292.85 403.52 283.04 417.59 277.69L491.57 159.3C468.52 160.28 447.46 172.55 435.24 192.1L278.59 442.8C266.37 462.35 264.57 486.67 273.78 507.8L347.77 389.41C346.43 374.42 349.91 359.18 358.1 346.07L383.16 305.96Z" fill="#000000" fill-opacity="0" fill-rule="nonzero"/>
	<path id="path182" d="M417.59 277.69L491.57 159.3C468.52 160.28 447.46 172.55 435.24 192.1L278.59 442.8C266.37 462.35 264.57 486.67 273.78 507.8L347.77 389.41C346.43 374.42 349.91 359.18 358.1 346.07L383.16 305.96C391.35 292.85 403.52 283.04 417.59 277.69Z" fill="#000000" fill-opacity="0" fill-rule="nonzero"/>
	<path id="path182" d="M491.57 159.3C468.52 160.28 447.46 172.55 435.24 192.1L278.59 442.8C266.37 462.35 264.57 486.67 273.78 507.8L347.77 389.41C346.43 374.42 349.91 359.18 358.1 346.07L383.16 305.96C391.35 292.85 403.52 283.04 417.59 277.69L491.57 159.3Z" stroke="#000000" stroke-opacity="0" stroke-width="1.333333"/>
	<path id="path186" d="M296.23 354.37L363.5 246.72C373.87 230.13 390.62 218.81 409.52 215.15L468.64 120.56C445.61 121.53 424.52 133.81 412.32 153.36L233.72 439.17C221.5 458.73 219.71 483.05 228.93 504.18L288.01 409.58C283.01 390.99 285.85 370.97 296.23 354.37Z" fill="#040000" fill-opacity="1.000000" fill-rule="nonzero"/>
	<path id="path186" d="M363.5 246.72C373.87 230.13 390.62 218.81 409.52 215.15L468.64 120.56C445.61 121.53 424.52 133.81 412.32 153.36L233.72 439.17C221.5 458.73 219.71 483.05 228.93 504.18L288.01 409.58C283.01 390.99 285.85 370.97 296.23 354.37L363.5 246.72Z" fill="#000000" fill-opacity="0" fill-rule="nonzero"/>
	<path id="path186" d="M409.52 215.15L468.64 120.56C445.61 121.53 424.52 133.81 412.32 153.36L233.72 439.17C221.5 458.73 219.71 483.05 228.93 504.18L288.01 409.58C283.01 390.99 285.85 370.97 296.23 354.37L363.5 246.72C373.87 230.13 390.62 218.81 409.52 215.15Z" fill="#000000" fill-opacity="0" fill-rule="nonzero"/>
	<path id="path186" d="M468.64 120.56C445.61 121.53 424.52 133.81 412.32 153.36L233.72 439.17C221.5 458.73 219.71 483.05 228.93 504.18L288.01 409.58C283.01 390.99 285.85 370.97 296.23 354.37L363.5 246.72C373.87 230.13 390.62 218.81 409.52 215.15L468.64 120.56Z" stroke="#000000" stroke-opacity="0" stroke-width="1.333333"/>
	<path id="path190" d="M187.72 494.7L244.2 404.31C243.76 403.3 243.35 402.29 242.96 401.28C236.16 383.44 238.71 363.37 248.83 347.17L336.25 207.27C346.37 191.08 363.27 179.99 382.29 178.28C383.39 178.18 384.48 178.11 385.57 178.06L442.03 87.66C419.02 88.64 397.94 100.92 385.73 120.48L192.51 429.69C180.27 449.24 178.5 473.56 187.72 494.7Z" fill="#040000" fill-opacity="1.000000" fill-rule="nonzero"/>
	<path id="path190" d="M244.2 404.31C243.76 403.3 243.35 402.29 242.96 401.28C236.16 383.44 238.71 363.37 248.83 347.17L336.25 207.27C346.37 191.08 363.27 179.99 382.29 178.28C383.39 178.18 384.48 178.11 385.57 178.06L442.03 87.66C419.02 88.64 397.94 100.92 385.73 120.48L192.51 429.69C180.27 449.24 178.5 473.56 187.72 494.7L244.2 404.31Z" fill="#000000" fill-opacity="0" fill-rule="nonzero"/>
	<path id="path190" d="M242.96 401.28C236.16 383.44 238.71 363.37 248.83 347.17L336.25 207.27C346.37 191.08 363.27 179.99 382.29 178.28C383.39 178.18 384.48 178.11 385.57 178.06L442.03 87.66C419.02 88.64 397.94 100.92 385.73 120.48L192.51 429.69C180.27 449.24 178.5 473.56 187.72 494.7L244.2 404.31C243.76 403.3 243.35 402.29 242.96 401.28Z" fill="#000000" fill-opacity="0" fill-rule="nonzero"/>
	<path id="path190" d="M248.83 347.17L336.25 207.27C346.37 191.08 363.27 179.99 382.29 178.28C383.39 178.18 384.48 178.11 385.57 178.06L442.03 87.66C419.02 88.64 397.94 100.92 385.73 120.48L192.51 429.69C180.27 449.24 178.5 473.56 187.72 494.7L244.2 404.31C243.76 403.3 243.35 402.29 242.96 401.28C236.16 383.44 238.71 363.37 248.83 347.17Z" stroke="#000000" stroke-opacity="0" stroke-width="1.333333"/>
	<path id="path194" d="M176.53 8.3L0 290.85C23.03 289.88 44.11 277.6 56.32 258.04L171.76 73.32C183.98 53.76 185.77 29.44 176.53 8.3Z" fill="#040000" fill-opacity="1.000000" fill-rule="nonzero"/>
	<path id="path194" d="M0 290.85C23.03 289.88 44.11 277.6 56.32 258.04L171.76 73.32C183.98 53.76 185.77 29.44 176.53 8.3L0 290.85Z" fill="#000000" fill-opacity="0" fill-rule="nonzero"/>
	<path id="path194" d="M56.32 258.04L171.76 73.32C183.98 53.76 185.77 29.44 176.53 8.3L0 290.85C23.03 289.88 44.11 277.6 56.32 258.04Z" fill="#000000" fill-opacity="0" fill-rule="nonzero"/>
	<path id="path194" d="M171.76 73.32C183.98 53.76 185.77 29.44 176.53 8.3L0 290.85C23.03 289.88 44.11 277.6 56.32 258.04L171.76 73.32Z" stroke="#000000" stroke-opacity="0" stroke-width="1.333333"/>
	<path id="path198" d="M102.61 47.4L2.71 207.26C21.57 203.67 40.14 189.83 52.36 170.28L91.13 108.23C103.35 88.68 107.65 65.92 102.61 47.4Z" fill="#040000" fill-opacity="1.000000" fill-rule="nonzero"/>
	<path id="path198" d="M2.71 207.26C21.57 203.67 40.14 189.83 52.36 170.28L91.13 108.23C103.35 88.68 107.65 65.92 102.61 47.4L2.71 207.26Z" fill="#000000" fill-opacity="0" fill-rule="nonzero"/>
	<path id="path198" d="M52.36 170.28L91.13 108.23C103.35 88.68 107.65 65.92 102.61 47.4L2.71 207.26C21.57 203.67 40.14 189.83 52.36 170.28Z" fill="#000000" fill-opacity="0" fill-rule="nonzero"/>
	<path id="path198" d="M91.13 108.23C103.35 88.68 107.65 65.92 102.61 47.4L2.71 207.26C21.57 203.67 40.14 189.83 52.36 170.28L91.13 108.23Z" stroke="#000000" stroke-opacity="0" stroke-width="1.333333"/>
	<path id="path202" d="M152.34 161.72L127.27 201.84C119.08 214.94 106.91 224.75 92.83 230.1L18.86 348.5C41.9 347.52 62.97 335.25 75.19 315.7L231.84 65C244.04 45.45 245.85 21.13 236.63 0L162.64 118.39C164 133.38 160.52 148.62 152.34 161.72Z" fill="#040000" fill-opacity="1.000000" fill-rule="nonzero"/>
	<path id="path202" d="M127.27 201.84C119.08 214.94 106.91 224.75 92.83 230.1L18.86 348.5C41.9 347.52 62.97 335.25 75.19 315.7L231.84 65C244.04 45.45 245.85 21.13 236.63 0L162.64 118.39C164 133.38 160.52 148.62 152.34 161.72L127.27 201.84Z" fill="#000000" fill-opacity="0" fill-rule="nonzero"/>
	<path id="path202" d="M92.83 230.1L18.86 348.5C41.9 347.52 62.97 335.25 75.19 315.7L231.84 65C244.04 45.45 245.85 21.13 236.63 0L162.64 118.39C164 133.38 160.52 148.62 152.34 161.72L127.27 201.84C119.08 214.94 106.91 224.75 92.83 230.1Z" fill="#000000" fill-opacity="0" fill-rule="nonzero"/>
	<path id="path202" d="M18.86 348.5C41.9 347.52 62.97 335.25 75.19 315.7L231.84 65C244.04 45.45 245.85 21.13 236.63 0L162.64 118.39C164 133.38 160.52 148.62 152.34 161.72L127.27 201.84C119.08 214.94 106.91 224.75 92.83 230.1L18.86 348.5Z" stroke="#000000" stroke-opacity="0" stroke-width="1.333333"/>
	<path id="path206" d="M214.2 153.42L146.92 261.07C136.53 277.67 119.79 288.99 100.9 292.65L41.79 387.24C64.83 386.26 85.9 373.99 98.12 354.44L276.71 68.62C288.93 49.07 290.72 24.75 281.51 3.61L222.4 98.2C227.4 116.81 224.57 136.83 214.2 153.42Z" fill="#040000" fill-opacity="1.000000" fill-rule="nonzero"/>
	<path id="path206" d="M146.92 261.07C136.53 277.67 119.79 288.99 100.9 292.65L41.79 387.24C64.83 386.26 85.9 373.99 98.12 354.44L276.71 68.62C288.93 49.07 290.72 24.75 281.51 3.61L222.4 98.2C227.4 116.81 224.57 136.83 214.2 153.42L146.92 261.07Z" fill="#000000" fill-opacity="0" fill-rule="nonzero"/>
	<path id="path206" d="M100.9 292.65L41.79 387.24C64.83 386.26 85.9 373.99 98.12 354.44L276.71 68.62C288.93 49.07 290.72 24.75 281.51 3.61L222.4 98.2C227.4 116.81 224.57 136.83 214.2 153.42L146.92 261.07C136.53 277.67 119.79 288.99 100.9 292.65Z" fill="#000000" fill-opacity="0" fill-rule="nonzero"/>
	<path id="path206" d="M41.79 387.24C64.83 386.26 85.9 373.99 98.12 354.44L276.71 68.62C288.93 49.07 290.72 24.75 281.51 3.61L222.4 98.2C227.4 116.81 224.57 136.83 214.2 153.42L146.92 261.07C136.53 277.67 119.79 288.99 100.9 292.65L41.79 387.24Z" stroke="#000000" stroke-opacity="0" stroke-width="1.333333"/>
	<path id="path210" d="M322.72 13.1L266.23 103.5C266.67 104.5 267.07 105.51 267.47 106.52C274.26 124.36 271.72 144.42 261.6 160.62L174.18 300.53C164.04 316.72 147.14 327.82 128.13 329.52C127.02 329.62 125.96 329.69 124.86 329.74L68.37 420.13C91.41 419.15 112.49 406.88 124.71 387.32L317.92 78.11C330.14 58.56 331.94 34.24 322.72 13.1Z" fill="#040000" fill-opacity="1.000000" fill-rule="nonzero"/>
	<path id="path210" d="M266.23 103.5C266.67 104.5 267.07 105.51 267.47 106.52C274.26 124.36 271.72 144.42 261.6 160.62L174.18 300.53C164.04 316.72 147.14 327.82 128.13 329.52C127.02 329.62 125.96 329.69 124.86 329.74L68.37 420.13C91.41 419.15 112.49 406.88 124.71 387.32L317.92 78.11C330.14 58.56 331.94 34.24 322.72 13.1L266.23 103.5Z" fill="#000000" fill-opacity="0" fill-rule="nonzero"/>
	<path id="path210" d="M267.47 106.52C274.26 124.36 271.72 144.42 261.6 160.62L174.18 300.53C164.04 316.72 147.14 327.82 128.13 329.52C127.02 329.62 125.96 329.69 124.86 329.74L68.37 420.13C91.41 419.15 112.49 406.88 124.71 387.32L317.92 78.11C330.14 58.56 331.94 34.24 322.72 13.1L266.23 103.5C266.67 104.5 267.07 105.51 267.47 106.52Z" fill="#000000" fill-opacity="0" fill-rule="nonzero"/>
	<path id="path210" d="M261.6 160.62L174.18 300.53C164.04 316.72 147.14 327.82 128.13 329.52C127.02 329.62 125.96 329.69 124.86 329.74L68.37 420.13C91.41 419.15 112.49 406.88 124.71 387.32L317.92 78.11C330.14 58.56 331.94 34.24 322.72 13.1L266.23 103.5C266.67 104.5 267.07 105.51 267.47 106.52C274.26 124.36 271.72 144.42 261.6 160.62Z" stroke="#000000" stroke-opacity="0" stroke-width="1.333333"/>
</svg>

